<!-- <svg xmlns="http://www.w3.org/2000/svg" style="position:absolute;width:0;height:0;overflow:hidden">
  <defs>
    <symbol id="icon-eyeOff" viewBox="0 0 32 32">
      <path stroke-linecap="round" stroke-linejoin="round" stroke-width="3.2" d="M23.92 23.92A13.43 13.43 0 0 1 16 26.667C6.667 26.667 1.333 16 1.333 16A24.605 24.605 0 0 1 8.08 8.08m5.12-2.427a12.161 12.161 0 0 1 2.8-.32C25.333 5.333 30.667 16 30.667 16a24.646 24.646 0 0 1-2.88 4.253m-8.96-1.426a4.003 4.003 0 0 1-5.755.102 3.994 3.994 0 0 1-.824-4.456 4.01 4.01 0 0 1 .927-1.298M1.333 1.333l29.333 29.333"/>
    </symbol>
    <symbol id="icon-heart" viewBox="0 0 32 32">
      <path stroke-linecap="round" stroke-linejoin="round" stroke-width="2.462" d="M27.787 6.147a7.326 7.326 0 0 0-10.373 0L16.001 7.56l-1.413-1.413a7.333 7.333 0 0 0-10.374 0 7.333 7.333 0 0 0 0 10.374l11.787 11.787 11.787-11.787a7.326 7.326 0 0 0 0-10.373z"/>
    </symbol>
    <symbol id="icon-logIn_opt" viewBox="0 0 32 32">
      <path
      style="stroke-width: 2;"
      d="M20 4h1.6c2.24 0 3.36 0 4.216 0.436 0.756 0.391 1.357 0.992 1.738 1.  726l0.011 0.022c0.436 0.856 0.436 1.976 0.436 4.216v11.2c0 2.24 0 3.  36-0.436 4.216-0.391 0.756-0.992 1.357-1.726 1.738l-0.022 0.011c-0.856   0.436-1.976 0.436-4.216 0.436h-1.6M13.333 9.333l6.667 6.667M20 16l-6.  667 6.667M20 16h-16"
      ></path>
    </symbol>

    <symbol id="icon-logo" viewBox="0 0 32 32">
  
     <defs>
       <linearGradient id="blueYellowSplit" x1="0" y1="0" x2="0" y2="1">
        <stop offset="50%" stop-color="#338AF3" />
        <stop offset="50%" stop-color="#FFDA44" />
       </linearGradient>
     </defs>
  
      <circle cx="16" cy="16" r="16" fill="url(#blueYellowSplit)" />
    </symbol>
   <symbol id="icon-star" viewBox="0 0 32 32">
     <path stroke-width="2.4" d="M12.4 9.394 16 2.572l3.6 6.822a2.2 2.2 0 0 0 1.571 1.141l7.601 1.315-5.376 5.532a2.2 2.2 0 0 0-.6 1.846l1.098 7.635-6.922-3.404a2.199 2.199 0 0 0-1.941 0l-6.922 3.404 1.098-7.635a2.2 2.2 0 0 0-.6-1.846L3.231 11.85l7.601-1.315a2.202 2.202 0 0 0 1.571-1.141z"/>
   </symbol>

  <symbol id="icon-UnionOpt" viewBox="0 0 66 32">
    <path d="M1.283 0c-0.645 0-1.167 0.523-1.167 1.169v42.617c0 0.646 0.522 1.169 1.167 1.169h63.070c0.645 0 1.167-0.523 1.167-1.169v-42.616c0-0.646-0.522-1.169-1.167-1.169h-63.070z"></path>
  </symbol>
  
  <symbol id="icon-Opt" viewBox="0 0 26 32">
    <path d="M19.7 0.778c0 1.566-0.56 3.029-1.679 4.382-1.349 1.609-2.98 2.539-4.749 2.392-0.023-0.178-0.035-0.383-0.035-0.592 0-0.001 0-0.001 0-0.002v0c0-1.503 0.642-3.113 1.781-4.428 0.569-0.666 1.292-1.22 2.169-1.662 0.875-0.436 1.703-0.676 2.481-0.717 0.020 0.188 0.032 0.406 0.032 0.626v0z"></path>
    <path d="M25.622 24.557c-0.493 1.161-1.046 2.156-1.688 3.084l0.037-0.057c-0.868 1.263-1.578 2.136-2.125 2.622-0.849 0.796-1.758 1.204-2.732 1.227-0.699 0-1.542-0.203-2.523-0.615-0.985-0.41-1.889-0.613-2.717-0.613-0.867 0-1.798 0.203-2.794 0.613-0.997 0.412-1.8 0.627-2.414 0.648-0.934 0.040-1.864-0.379-2.794-1.261-0.593-0.528-1.334-1.432-2.223-2.714-0.953-1.369-1.737-2.956-2.351-4.765-0.658-1.954-0.988-3.846-0.988-5.679 0-2.099 0.445-3.909 1.335-5.426 0.7-1.218 1.63-2.179 2.795-2.885 1.076-0.668 2.379-1.071 3.774-1.088l0.005-0c0.742 0 1.715 0.234 2.923 0.694 1.205 0.462 1.979 0.696 2.319 0.696 0.253 0 1.113-0.274 2.57-0.82 1.378-0.506 2.541-0.716 3.494-0.633 2.582 0.213 4.522 1.252 5.812 3.123-2.309 1.428-3.451 3.427-3.428 5.992 0.021 1.999 0.731 3.661 2.128 4.982 0.598 0.585 1.302 1.064 2.080 1.405l0.045 0.018c-0.17 0.505-0.35 0.988-0.542 1.452z"></path>
</symbol>
  </defs>
</svg> -->

<svg xmlns="http://www.w3.org/2000/svg" style="position:absolute;width:0;height:0;overflow:hidden">
  <defs>
    <symbol id="icon-eyeOff" viewBox="0 0 32 32">
      <path stroke-linecap="round" stroke-linejoin="round" stroke-width="3.2" d="M23.92 23.92A13.43 13.43 0 0 1 16 26.667C6.667 26.667 1.333 16 1.333 16A24.605 24.605 0 0 1 8.08 8.08m5.12-2.427a12.161 12.161 0 0 1 2.8-.32C25.333 5.333 30.667 16 30.667 16a24.646 24.646 0 0 1-2.88 4.253m-8.96-1.426a4.003 4.003 0 0 1-5.755.102 3.994 3.994 0 0 1-.824-4.456 4.01 4.01 0 0 1 .927-1.298M1.333 1.333l29.333 29.333"/>
    </symbol>
    <symbol id="icon-heart" viewBox="0 0 32 32">
      <path stroke-linecap="round" stroke-linejoin="round" stroke-width="2.462" d="M27.787 6.147a7.326 7.326 0 0 0-10.373 0L16.001 7.56l-1.413-1.413a7.333 7.333 0 0 0-10.374 0 7.333 7.333 0 0 0 0 10.374l11.787 11.787 11.787-11.787a7.326 7.326 0 0 0 0-10.373z"/>
    </symbol>
    <symbol id="icon-logIn_opt" viewBox="0 0 32 32">
      <path
    style="stroke-width: 2;"
    d="M20 4h1.6c2.24 0 3.36 0 4.216 0.436 0.756 0.391 1.357 0.992 1.738 1.726l0.011 0.022c0.436 0.856 0.436 1.976 0.436 4.216v11.2c0 2.24 0 3.36-0.436 4.216-0.391 0.756-0.992 1.357-1.726 1.738l-0.022 0.011c-0.856 0.436-1.976 0.436-4.216 0.436h-1.6M13.333 9.333l6.667 6.667M20 16l-6.667 6.667M20 16h-16"
      ></path>
    </symbol>

    <symbol id="icon-logo" viewBox="0 0 32 32">
  <!-- Define a gradient -->
      <defs>
        <linearGradient id="blueYellowSplit" x1="0" y1="0" x2="0" y2="1">
          <stop offset="50%" stop-color="#338AF3" />
          <stop offset="50%" stop-color="#FFDA44" />
      </linearGradient>
      </defs>
  <!-- Circle with gradient -->
      <circle cx="16" cy="16" r="16" fill="url(#blueYellowSplit)" />
    </symbol>
    <symbol id="icon-star" viewBox="0 0 32 32">
      <path stroke-width="2.4" d="M12.4 9.394 16 2.572l3.6 6.822a2.2 2.2 0 0 0 1.571 1.141l7.601 1.315-5.376 5.532a2.2 2.2 0 0 0-.6 1.846l1.098 7.635-6.922-3.404a2.199 2.199 0 0 0-1.941 0l-6.922 3.404 1.098-7.635a2.2 2.2 0 0 0-.6-1.846L3.231 11.85l7.601-1.315a2.202 2.202 0 0 0 1.571-1.141z"/>
    </symbol>
    <symbol id="icon-chevron-downOpt" viewBox="0 0 32 32">
      <path stroke-linejoin="round" stroke-linecap="round" stroke-miterlimit="4" stroke-width="3.2" d="M8 12l8 8 8-8"></path>
    </symbol>
  </defs>
</svg>